<?xml version="1.0" encoding="utf-8"?>
<svg version="1.1" xmlns:xlink="http://www.w3.org/1999/xlink" width="20px" height="20px" xmlns="http://www.w3.org/2000/svg">
  <g transform="matrix(1 0 0 1 -36 -109 )">
    <path d="M 19.6563573883161 1.20240480961924  C 19.8854524627721 1.33600534402137  20 1.48964595858383  20 1.66332665330661  C 20 1.83700734802939  19.8854524627721 1.99064796259185  19.6563573883161 2.12424849699399  L 6.15120274914089 10  L 19.6563573883161 17.875751503006  C 19.8854524627721 18.0093520374081  20 18.1629926519706  20 18.3366733466934  C 20 18.5103540414162  19.8854524627721 18.6639946559786  19.6563573883161 18.7975951903808  L 17.9381443298969 19.7995991983968  C 17.709049255441 19.9331997327989  17.4455899198167 20  17.1477663230241 20  C 16.8499427262314 20  16.5864833906071 19.9331997327989  16.3573883161512 19.7995991983968  L 0.343642611683849 10.4609218436874  C 0.11454753722795 10.3273213092852  0 10.1736806947228  0 10  C 0 9.82631930527722  0.11454753722795 9.67267869071476  0.343642611683849 9.53907815631263  L 16.3573883161512 0.200400801603207  C 16.5864833906071 0.0668002672010681  16.8499427262314 0  17.1477663230241 0  C 17.4455899198167 0  17.709049255441 0.0668002672010681  17.9381443298969 0.200400801603207  L 19.6563573883161 1.20240480961924  Z " fill-rule="nonzero" fill="#333333" stroke="none" transform="matrix(1 0 0 1 36 109 )" />
  </g>
</svg>