<?xml version="1.0" encoding="utf-8"?>
<svg version="1.1" xmlns:xlink="http://www.w3.org/1999/xlink" width="13px" height="13px" xmlns="http://www.w3.org/2000/svg">
  <g transform="matrix(1 0 0 1 -50 -157 )">
    <path d="M 3.61111111111111 6.5  L 11.9166666666667 6.5  C 12.2175925925926 6.5  12.4733796296296 6.57899305555556  12.6840277777778 6.73697916666667  C 12.8946759259259 6.89496527777778  13 7.08680555555556  13 7.3125  L 13 12.1875  C 13 12.4131944444444  12.8946759259259 12.6050347222222  12.6840277777778 12.7630208333333  C 12.4733796296296 12.9210069444444  12.2175925925926 13  11.9166666666667 13  L 1.08333333333333 13  C 0.782407407407408 13  0.52662037037037 12.9210069444444  0.315972222222222 12.7630208333333  C 0.105324074074074 12.6050347222222  0 12.4131944444444  0 12.1875  L 0 7.3125  C 0 7.08680555555556  0.105324074074074 6.89496527777778  0.315972222222222 6.73697916666667  C 0.52662037037037 6.57899305555556  0.782407407407408 6.5  1.08333333333333 6.5  L 1.44444444444444 6.5  L 1.44444444444444 3.79166666666667  C 1.44444444444444 2.74782986111111  1.93909143518519 1.85492621527778  2.92838541666667 1.11295572916667  C 3.91767939814815 0.370985243055556  5.10821759259259 0  6.5 0  C 7.89178240740741 0  9.08232060185185 0.370985243055556  10.0716145833333 1.11295572916667  C 11.0609085648148 1.85492621527778  11.5555555555556 2.74782986111111  11.5555555555556 3.79166666666667  C 11.5555555555556 3.93836805555555  11.4840856481481 4.06532118055556  11.3411458333333 4.17252604166667  C 11.1982060185185 4.27973090277778  11.0289351851852 4.33333333333333  10.8333333333333 4.33333333333333  L 10.1111111111111 4.33333333333333  C 9.91550925925926 4.33333333333333  9.74623842592593 4.27973090277778  9.60329861111111 4.17252604166667  C 9.4603587962963 4.06532118055556  9.38888888888889 3.93836805555555  9.38888888888889 3.79166666666667  C 9.38888888888889 3.19357638888889  9.10677083333333 2.68294270833333  8.54253472222222 2.259765625  C 7.97829861111111 1.83658854166667  7.29745370370371 1.625  6.5 1.625  C 5.7025462962963 1.625  5.02170138888889 1.83658854166667  4.45746527777778 2.259765625  C 3.89322916666667 2.68294270833333  3.61111111111111 3.19357638888889  3.61111111111111 3.79166666666667  L 3.61111111111111 6.5  Z " fill-rule="nonzero" fill="#999999" stroke="none" transform="matrix(1 0 0 1 50 157 )" />
  </g>
</svg>