<?xml version="1.0" encoding="utf-8"?>
<svg version="1.1" xmlns:xlink="http://www.w3.org/1999/xlink" width="80px" height="80px" xmlns="http://www.w3.org/2000/svg">
  <g transform="matrix(1 0 0 1 -58 -182 )">
    <path d="M 98 182  C 120.4 182  138 199.6  138 222  C 138 244.4  120.4 262  98 262  C 75.6 262  58 244.4  58 222  C 58 199.6  75.6 182  98 182  Z " fill-rule="nonzero" fill="#039a12" stroke="none" />
    <path d="M 98 182.5  C 120.12 182.5  137.5 199.88  137.5 222  C 137.5 244.12  120.12 261.5  98 261.5  C 75.88 261.5  58.5 244.12  58.5 222  C 58.5 199.88  75.88 182.5  98 182.5  Z " stroke-width="1" stroke="#797979" fill="none" />
  </g>
</svg>