<?xml version="1.0" encoding="utf-8"?>
<svg version="1.1" xmlns:xlink="http://www.w3.org/1999/xlink" width="20px" height="20px" xmlns="http://www.w3.org/2000/svg">
  <g transform="matrix(1 0 0 1 -51 -193 )">
    <path d="M 5.55555555555556 6.36363636363637  L 5.55555555555556 9.09090909090909  L 14.4444444444444 9.09090909090909  L 14.4444444444444 6.36363636363637  C 14.4444444444444 5.35984848484848  14.0104166666667 4.50284090909091  13.1423611111111 3.79261363636364  C 12.2743055555556 3.08238636363636  11.2268518518519 2.72727272727273  10 2.72727272727273  C 8.77314814814815 2.72727272727273  7.72569444444444 3.08238636363636  6.85763888888889 3.79261363636364  C 5.98958333333333 4.50284090909091  5.55555555555556 5.35984848484848  5.55555555555556 6.36363636363637  Z M 19.5138888888889 9.48863636363637  C 19.837962962963 9.75378787878788  20 10.0757575757576  20 10.4545454545455  L 20 18.6363636363636  C 20 19.0151515151515  19.837962962963 19.3371212121212  19.5138888888889 19.6022727272727  C 19.1898148148148 19.8674242424242  18.7962962962963 20  18.3333333333333 20  L 1.66666666666667 20  C 1.2037037037037 20  0.810185185185185 19.8674242424242  0.486111111111111 19.6022727272727  C 0.162037037037037 19.3371212121212  0 19.0151515151515  0 18.6363636363636  L 0 10.4545454545455  C 0 10.0757575757576  0.162037037037037 9.75378787878788  0.486111111111111 9.48863636363637  C 0.810185185185185 9.22348484848485  1.2037037037037 9.09090909090909  1.66666666666667 9.09090909090909  L 2.22222222222222 9.09090909090909  L 2.22222222222222 6.36363636363637  C 2.22222222222222 4.62121212121212  2.98611111111111 3.125  4.51388888888889 1.875  C 6.04166666666667 0.625  7.87037037037037 0  10 0  C 12.1296296296296 0  13.9583333333333 0.625  15.4861111111111 1.875  C 17.0138888888889 3.125  17.7777777777778 4.62121212121212  17.7777777777778 6.36363636363637  L 17.7777777777778 9.09090909090909  L 18.3333333333333 9.09090909090909  C 18.7962962962963 9.09090909090909  19.1898148148148 9.22348484848485  19.5138888888889 9.48863636363637  Z " fill-rule="nonzero" fill="#ffffff" stroke="none" transform="matrix(1 0 0 1 51 193 )" />
  </g>
</svg>