<?xml version="1.0" encoding="utf-8"?>
<svg version="1.1" xmlns:xlink="http://www.w3.org/1999/xlink" width="60px" height="60px" xmlns="http://www.w3.org/2000/svg">
  <g transform="matrix(1 0 0 1 -60 -48 )">
    <path d="M 55.2584134615385 5.60369318181818  C 58.4194711538462 9.33948863636363  60 13.8352272727273  60 19.0909090909091  L 60 30  C 60 30.7386363636364  59.7716346153846 31.3778409090909  59.3149038461538 31.9176136363636  C 58.8581730769231 32.4573863636364  58.3173076923077 32.7272727272727  57.6923076923077 32.7272727272727  L 55.3846153846154 32.7272727272727  C 54.7596153846154 32.7272727272727  54.21875 32.4573863636364  53.7620192307692 31.9176136363636  C 53.3052884615385 31.3778409090909  53.0769230769231 30.7386363636364  53 30  L 53 19.0909090909091  C 53.0769230769231 16.0795454545455  52.1754807692308 13.5085227272727  50.3725961538462 11.3778409090909  C 48.5697115384615 9.24715909090909  46.3942307692308 8.18181818181818  43.8461538461538 8.18181818181818  C 41.2980769230769 8.18181818181818  39.1225961538462 9.24715909090909  37.3197115384615 11.3778409090909  C 35.5168269230769 13.5085227272727  34.6153846153846 16.0795454545455  34.6153846153846 19.0909090909091  L 34.6153846153846 27.2727272727273  L 38.0769230769231 27.2727272727273  C 39.0384615384615 27.2727272727273  39.8557692307692 27.6704545454545  40.5288461538462 28.4659090909091  C 41.2019230769231 29.2613636363636  41.5384615384615 30.2272727272727  41 31.3636363636364  L 41 55.9090909090909  C 41.5384615384615 57.0454545454545  41.2019230769231 58.0113636363636  40.5288461538462 58.8068181818182  C 39.8557692307692 59.6022727272727  39.0384615384615 60  38.0769230769231 60  L 3.46153846153846 60  C 2.5 60  1.68269230769231 59.6022727272727  1.00961538461538 58.8068181818182  C 0.336538461538462 58.0113636363636  0 57.0454545454545  0 55.9090909090909  L 0 31.3636363636364  C 0 30.2272727272727  0.336538461538462 29.2613636363636  1.00961538461538 28.4659090909091  C 1.68269230769231 27.6704545454545  2.5 27.2727272727273  3.46153846153846 28  L 27.6923076923077 28  L 27.6923076923077 19.0909090909091  C 27.6923076923077 13.8352272727273  29.2728365384615 9.33948863636363  32.4338942307692 5.60369318181818  C 35.5949519230769 1.86789772727273  39.3990384615385 0  43.8461538461538 0  C 48.2932692307692 0  52.0973557692308 1.86789772727273  55.2584134615385 5.60369318181818  Z " fill-rule="nonzero" fill="#000000" stroke="none" transform="matrix(1 0 0 1 60 48 )" />
  </g>
</svg>