<?xml version="1.0" encoding="utf-8"?>
<svg version="1.1" xmlns:xlink="http://www.w3.org/1999/xlink" width="180px" height="180px" xmlns="http://www.w3.org/2000/svg">
  <g transform="matrix(1 0 0 1 5 0 )">
    <path d="M 85 9  C 130.36 9  166 44.64  166 90  C 166 135.36  130.36 171  85 171  C 39.64 171  4 135.36  4 90  C 4 44.64  39.64 9  85 9  Z " fill-rule="nonzero" fill="#ffffff" stroke="none" />
    <path d="M 85 5  C 132.6 5  170 42.4  170 90  C 170 137.6  132.6 175  85 175  C 37.4 175  0 137.6  0 90  C 0 42.4  37.4 5  85 5  Z " stroke-width="10" stroke="#1890ff" fill="none" />
  </g>
</svg>