<?xml version="1.0" encoding="utf-8"?>
<svg version="1.1" xmlns:xlink="http://www.w3.org/1999/xlink" width="60px" height="60px" xmlns="http://www.w3.org/2000/svg">
  <g transform="matrix(1 0 0 1 -53 -48 )">
    <path d="M 16.6666666666667 19.0909090909091  L 16.6666666666667 28  L 43.3333333333333 28  L 43.3333333333333 19.0909090909091  C 43.3333333333333 16.0795454545455  42.03125 13.5085227272727  39.4270833333333 11.3778409090909  C 36.8229166666667 9.24715909090909  33.6805555555556 8.18181818181818  30 8.18181818181818  C 26.3194444444444 8.18181818181818  23.1770833333333 9.24715909090909  20.5729166666667 11.3778409090909  C 17.96875 13.5085227272727  16.6666666666667 16.0795454545455  16.6666666666667 19.0909090909091  Z M 58.5416666666667 28.4659090909091  C 59.5138888888889 29.2613636363636  60 30.2272727272727  60 31.3636363636364  L 60 55.9090909090909  C 60 57.0454545454545  59.5138888888889 58.0113636363636  58.5416666666667 58.8068181818182  C 57.5694444444445 59.6022727272727  56.3888888888889 60  55 60  L 5 60  C 3.61111111111111 60  2.43055555555556 59.6022727272727  1.45833333333333 58.8068181818182  C 0.486111111111111 58.0113636363636  0 57.0454545454545  0 55.9090909090909  L 0 31.3636363636364  C 0 30.2272727272727  0.486111111111111 29.2613636363636  1.45833333333333 28.4659090909091  C 2.43055555555556 27.6704545454545  3.61111111111111 27.2727272727273  5 27.2727272727273  L 6.66666666666667 27.2727272727273  L 6.66666666666667 19.0909090909091  C 6.66666666666667 13.8636363636364  8.95833333333333 9.375  13.5416666666667 5.625  C 18.125 1.875  23.6111111111111 0  30 0  C 36.3888888888889 0  41.875 1.875  46.4583333333333 5.625  C 51.0416666666667 9.375  53.3333333333333 13.8636363636364  53.3333333333333 19.0909090909091  L 53.3333333333333 27.2727272727273  L 55 27.2727272727273  C 56.3888888888889 27.2727272727273  57.5694444444445 27.6704545454545  58.5416666666667 28.4659090909091  Z " fill-rule="nonzero" fill="#000000" stroke="none" transform="matrix(1 0 0 1 53 48 )" />
  </g>
</svg>