<?xml version="1.0" encoding="utf-8"?>
<svg version="1.1" xmlns:xlink="http://www.w3.org/1999/xlink" width="25px" height="25px" xmlns="http://www.w3.org/2000/svg">
  <g transform="matrix(1 0 0 1 -95 -461 )">
    <path d="M 11.5270350564468 8.16582914572864  C 12.0816003168944 7.57956448911223  12.3588829471182 6.86767169179229  12.3588829471182 6.03015075376885  C 12.3588829471182 5.19262981574539  12.0816003168944 4.48073701842546  11.5270350564468 3.89447236180905  C 10.9724697959992 3.30820770519263  10.2990691225985 3.01507537688442  9.5068330362448 3.01507537688442  C 8.71459694989107 3.01507537688442  8.04119627649039 3.30820770519263  7.48663101604278 3.89447236180905  C 6.93206575559517 4.48073701842546  6.65478312537136 5.19262981574539  6.65478312537136 6.03015075376885  C 6.65478312537136 6.46984924623115  6.74886116062587 6.90431323283082  6.93701723113488 7.33354271356784  C 6.53099623687859 7.13463149078727  6.12002376708259 7.03517587939699  5.70409982174688 7.03517587939699  C 4.91186373539315 7.03517587939699  4.23846306199247 7.32830820770519  3.68389780154486 7.91457286432161  C 3.12933254109725 8.50083752093802  2.85204991087344 9.21273031825796  2.85204991087344 10.0502512562814  C 2.85204991087344 10.8877721943049  3.12933254109725 11.5996649916248  3.68389780154486 12.1859296482412  C 4.23846306199247 12.7721943048576  4.91186373539315 13.0653266331658  5.70409982174688 13.0653266331658  C 6.49633590810061 13.0653266331658  7.16973658150129 12.7721943048576  7.7243018419489 12.1859296482412  C 8.27886710239651 11.5996649916248  8.55614973262032 10.8877721943049  8.55614973262032 10.0502512562814  C 8.55614973262032 9.61055276381909  8.46207169736582 9.17608877721943  8.2739156268568 8.74685929648241  C 8.67993662111309 8.94577051926298  9.09090909090909 9.04522613065327  9.5068330362448 9.04522613065327  C 10.2990691225985 9.04522613065327  10.9724697959992 8.75209380234506  11.5270350564468 8.16582914572864  Z M 24.5766488413547 16.4415829145729  C 24.8588829471182 16.7870603015075  25 17.001675041876  25 17.0854271356784  C 25 17.2634003350084  24.7573776985542 17.608877721943  24.2721330956625 18.1218592964824  C 23.7868884927708 18.6348408710218  23.4600911071499 18.8913316582915  23.2917409387998 18.8913316582915  C 23.202614379085 18.8913316582915  23.0614973262032 18.8075795644891  22.8683897801545 18.6400753768844  C 22.6752822341058 18.4725711892797  22.4945533769063 18.2998324958124  22.3262032085562 18.1218592964824  C 22.157853040206 17.9438860971524  21.9672212319271 17.7345058626466  21.7543077837195 17.4937185929648  C 21.541394335512 17.2529313232831  21.4200831847891 17.1168341708543  21.3903743315508 17.0854271356784  L 19.9643493761141 18.5929648241206  L 23.2323232323232 22.0477386934673  C 23.509605862547 22.3408710217755  23.6482471776589 22.6968174204355  23.6482471776589 23.1155778894472  C 23.6482471776589 23.5552763819095  23.4551396316102 23.9792713567839  23.0689245395128 24.3875628140704  C 22.6827094474153 24.7958542713568  22.2816399286988 25  21.865715983363 25  C 21.4695979401862 25  21.1328976034858 24.8534338358459  20.855614973262 24.5603015075377  L 10.8882947118241 14.0232412060302  C 9.14537532184591 15.3946817420436  7.33808674985146 16.0804020100503  5.46642899584076 16.0804020100503  C 3.85224796989503 16.0804020100503  2.5376312141018 15.543865159129  1.52257872846108 14.4707914572864  C 0.507526242820361 13.3977177554439  0 12.0079564489112  0 10.3015075376884  C 0 8.62646566164154  0.470390176272529 6.98806532663317  1.41117052881759 5.38630653266332  C 2.35195088136265 3.78454773869347  3.57991681521093 2.48639028475712  5.09506833036245 1.49183417085427  C 6.61021984551396 0.497278056951422  8.16003168944346 0  9.74450386215092 0  C 11.3586848880967 0  12.6733016438899 0.536536850921271  13.6883541295306 1.60961055276382  C 14.7034066151713 2.68268425460636  15.2109328579917 4.07244556113903  15.2109328579917 5.77889447236181  C 15.2109328579917 7.75753768844221  14.5622895622896 9.66813232830821  13.2650029708853 11.5106783919598  L 18.5383244206774 17.0854271356784  L 19.9643493761141 15.5778894472362  C 19.9346405228758 15.5464824120603  19.8059021588433 15.4182370184255  19.5781342840166 15.1931532663317  C 19.3503664091899 14.9680695142379  19.1523073876015 14.766541038526  18.9839572192513 14.588567839196  C 18.8156070509012 14.410594639866  18.6522083580907 14.2195351758794  18.49376114082 14.0153894472362  C 18.3353139235492 13.811243718593  18.2560903149138 13.6620603015075  18.2560903149138 13.5678391959799  C 18.2560903149138 13.3898659966499  18.4987126163597 13.0443886097152  18.9839572192513 12.5314070351759  C 19.469201822143 12.0184254606365  19.7959992077639 11.7619346733668  19.9643493761141 11.7619346733668  C 20.0930877401466 11.7619346733668  20.2069716775599 11.8142797319933  20.3060011883541 11.9189698492462  C 20.3654188948307 11.981783919598  20.5931867696574 12.2147194304858  20.9893048128342 12.6177763819095  C 21.3854228560111 13.0208333333333  21.7914438502674 13.4369765494137  22.2073677956031 13.8662060301508  C 22.6232917409388 14.2954355108878  23.0515943751238 14.7456030150754  23.4922756981581 15.2167085427136  C 23.9329570211923 15.6878140703518  24.2944147355912 16.0961055276382  24.5766488413547 16.4415829145729  Z " fill-rule="nonzero" fill="#4618ff" stroke="none" transform="matrix(1 0 0 1 95 461 )" />
  </g>
</svg>