<?xml version="1.0" encoding="utf-8"?>
<svg version="1.1" xmlns:xlink="http://www.w3.org/1999/xlink" width="70px" height="70px" xmlns="http://www.w3.org/2000/svg">
  <g transform="matrix(1 0 0 1 -35 -205 )">
    <path d="M 70 205  C 89.6 205  105 220.4  105 240  C 105 259.6  89.6 275  70 275  C 50.4 275  35 259.6  35 240  C 35 220.4  50.4 205  70 205  Z " fill-rule="nonzero" fill="#555555" stroke="none" />
    <path d="M 70 205.5  C 89.32 205.5  104.5 220.68  104.5 240  C 104.5 259.32  89.32 274.5  70 274.5  C 50.68 274.5  35.5 259.32  35.5 240  C 35.5 220.68  50.68 205.5  70 205.5  Z " stroke-width="1" stroke="#797979" fill="none" />
  </g>
</svg>