<?xml version="1.0" encoding="utf-8"?>
<svg version="1.1" xmlns:xlink="http://www.w3.org/1999/xlink" width="40px" height="40px" xmlns="http://www.w3.org/2000/svg">
  <g transform="matrix(1 0 0 1 -50 -220 )">
    <path d="M 31.3333333333333 32  L 8.66666666666667 32  C 7.75 32  6.96527777777778 31.5104166666667  6.3125 30.53125  C 5.65972222222222 29.5520833333333  5.33333333333333 28.375  6 27  L 6 5  C 5.33333333333333 3.625  5.65972222222222 2.44791666666667  6.3125 1.46875  C 6.96527777777778 0.489583333333328  7.75 0  8.66666666666667 0  L 31.3333333333333 0  C 32.25 0  33.0347222222222 0.489583333333328  33.6875 1.46875  C 34.3402777777778 2.44791666666667  34.6666666666667 3.625  34 5  L 34 27  C 34.6666666666667 28.375  34.3402777777778 29.5520833333333  33.6875 30.53125  C 33.0347222222222 31.5104166666667  32.25 32  31.3333333333333 32  Z M 8.19791666666667 4.296875  C 8.06597222222222 4.49479166666666  8 4.72916666666666  8 5  L 8 27  C 8 27.2708333333333  8.06597222222222 27.5052083333333  8.19791666666667 27.703125  C 8.32986111111111 27.9010416666667  8.48611111111111 28  8.66666666666667 28  L 31.3333333333333 28  C 31.5138888888889 28  31.6701388888889 27.9010416666667  31.8020833333333 27.703125  C 31.9340277777778 27.5052083333333  32 27.2708333333333  32 27  L 32 5  C 32 4.72916666666666  31.9340277777778 4.49479166666666  31.8020833333333 4.296875  C 31.6701388888889 4.09895833333333  31.5138888888889 4  31.3333333333333 4  L 8.66666666666667 4  C 8.48611111111111 4  8.32986111111111 4.09895833333333  8.19791666666667 4.296875  Z M 3.33333333333333 34  L 36.6666666666667 34  L 40 34  L 40 37  C 40 37.8333333333333  39.6736111111111 38.5416666666667  39.0208333333333 39.125  C 38.3680555555556 39.7083333333333  37.5833333333333 40  36.6666666666667 40  L 3.33333333333333 40  C 2.41666666666667 40  1.63194444444444 39.7083333333333  0.979166666666667 39.125  C 0.326388888888889 38.5416666666667  0 37.8333333333333  0 37  L 0 34  L 3.33333333333333 34  Z M 18.3333333333333 37  L 21.6666666666667 37  C 21.8888888888889 37  22 36.8333333333333  22 36.5  C 22 36.1666666666667  21.8888888888889 36  21.6666666666667 36  L 18.3333333333333 36  C 18.1111111111111 36  18 36.1666666666667  18 36.5  C 18 36.8333333333333  18.1111111111111 37  18.3333333333333 37  Z " fill-rule="nonzero" fill="#ffffff" stroke="none" transform="matrix(1 0 0 1 50 220 )" />
  </g>
</svg>