<?xml version="1.0" encoding="utf-8"?>
<svg version="1.1" xmlns:xlink="http://www.w3.org/1999/xlink" width="56px" height="83px" xmlns="http://www.w3.org/2000/svg">
  <g transform="matrix(1 0 0 1 -168 -313 )">
    <path d="M 31 62.5279017857143  L 31 48.7717633928571  L 37.3615733736762 55.6266741071429  L 31 62.5279017857143  Z M 31 34.2282366071429  L 31 20.4720982142857  L 37.3615733736762 27.3733258928571  L 31 34.2282366071429  Z M 26 48.8643973214286  L 26 77.1640625  L 45.1981845688351 55.6729910714286  L 32.2360060514372 41.5  L 45.1981845688351 27.3270089285714  L 26 5.8359375  L 26 34.1356026785714  L 14.7413010590015 22.3247767857143  L 10.8018154311649 26.6322544642857  L 24.357034795764 41.5  L 10.8018154311649 56.3677455357143  L 14.7413010590015 60.6752232142857  L 26 48.8643973214286  Z M 54.6444780635401 24.5711495535714  C 55.5481593545134 29.4035528273809  56 35.0465029761905  56 41.5  C 56 47.9534970238095  55.5481593545134 53.596447172619  54.6444780635401 58.4288504464286  C 53.7407967725668 63.2612537202381  52.5052950075643 67.2290736607143  50.9379727685325 70.3323102678572  C 49.3706505295008 73.435546875  47.386787695411 75.9443824404762  44.9863842662632 77.8588169642857  C 42.5859808371155 79.7732514880952  40.023197175996 81.1087239583333  37.2980332829047 81.865234375  C 34.5728693898134 82.6217447916667  31.4735249621785 83  28 83  C 24.5264750378215 83  21.4271306101866 82.6217447916667  18.7019667170953 81.865234375  C 15.976802824004 81.1087239583333  13.4140191628845 79.7732514880952  11.0136157337368 77.8588169642857  C 8.61321230458901 75.9443824404762  6.62934947049924 73.435546875  5.06202723146747 70.3323102678572  C 3.4947049924357 67.2290736607143  2.25920322743318 63.2612537202381  1.35552193645991 58.4288504464286  C 0.451840645486637 53.596447172619  0 47.9534970238095  0 41.5  C 0 35.0465029761905  0.451840645486637 29.4035528273809  1.35552193645991 24.5711495535714  C 2.25920322743318 19.7387462797619  3.4947049924357 15.7709263392857  5.06202723146747 12.6676897321429  C 6.62934947049924 9.564453125  8.61321230458901 7.05561755952381  11.0136157337368 5.14118303571429  C 13.4140191628845 3.22674851190476  15.976802824004 1.89127604166666  18.7019667170953 1.134765625  C 21.4271306101866 0.378255208333339  24.5264750378215 0  28 0  C 31.4735249621785 0  34.5728693898134 0.378255208333339  37.2980332829047 1.134765625  C 40.023197175996 1.89127604166666  42.5859808371155 3.22674851190476  44.9863842662632 5.14118303571429  C 47.386787695411 7.05561755952381  49.3706505295008 9.564453125  50.9379727685325 12.6676897321429  C 52.5052950075643 15.7709263392857  53.7407967725668 19.7387462797619  54.6444780635401 24.5711495535714  Z " fill-rule="nonzero" fill="#0000ff" stroke="none" transform="matrix(1 0 0 1 168 313 )" />
  </g>
</svg>